<mxfile modified="2021-03-07T14:53:55.364Z" host="7835daaa-4804-459c-a536-6d616b1155d6" agent="5.0 (Macintosh; Intel Mac OS X 11_2_2) AppleWebKit/537.36 (KHTML, like Gecko) Code/1.54.1 Chrome/87.0.4280.141 Electron/11.3.0 Safari/537.36" etag="DT0dhMCpBjrDDfYv4xR6" version="14.2.4" type="embed">
    <diagram id="6w1g0II_0v7g0-RlPUKM" name="Page-1">
        <mxGraphModel dx="442" dy="363" grid="1" gridSize="10" guides="1" tooltips="1" connect="1" arrows="1" fold="1" page="1" pageScale="1" pageWidth="1169" pageHeight="827" background="none" math="0" shadow="0">
            <root>
                <mxCell id="0"/>
                <mxCell id="1" parent="0"/>
                <mxCell id="VJhF8_b7LZ2ZCpZNgZdt-1" value="AWS Cloud" style="points=[[0,0],[0.25,0],[0.5,0],[0.75,0],[1,0],[1,0.25],[1,0.5],[1,0.75],[1,1],[0.75,1],[0.5,1],[0.25,1],[0,1],[0,0.75],[0,0.5],[0,0.25]];outlineConnect=0;gradientColor=none;html=1;whiteSpace=wrap;fontSize=12;fontStyle=0;shape=mxgraph.aws4.group;grIcon=mxgraph.aws4.group_aws_cloud_alt;strokeColor=#232F3E;fillColor=none;verticalAlign=top;align=left;spacingLeft=30;fontColor=#232F3E;dashed=0;" parent="1" vertex="1">
                    <mxGeometry x="269" y="252" width="630" height="388" as="geometry"/>
                </mxCell>
                <mxCell id="A0feqh_LO4c4gAYyQwBR-2" value="&lt;font style=&quot;font-size: 14px&quot;&gt;/v1/greet&lt;/font&gt;" style="text;html=1;resizable=0;points=[];autosize=1;align=left;verticalAlign=top;spacingTop=-4;" parent="1" vertex="1">
                    <mxGeometry x="410" y="372.5" width="70" height="20" as="geometry"/>
                </mxCell>
                <mxCell id="b237HD22X1SUacGwKrPa-4" style="edgeStyle=orthogonalEdgeStyle;rounded=0;orthogonalLoop=1;jettySize=auto;html=1;exitX=0.5;exitY=1;exitDx=0;exitDy=0;dashed=1;" parent="1" source="A0feqh_LO4c4gAYyQwBR-9" target="b237HD22X1SUacGwKrPa-3" edge="1">
                    <mxGeometry relative="1" as="geometry"/>
                </mxCell>
                <mxCell id="A0feqh_LO4c4gAYyQwBR-9" value="" style="rounded=0;whiteSpace=wrap;html=1;fillColor=none;" parent="1" vertex="1">
                    <mxGeometry x="486" y="310" width="300" height="174" as="geometry"/>
                </mxCell>
                <mxCell id="A0feqh_LO4c4gAYyQwBR-16" style="edgeStyle=orthogonalEdgeStyle;rounded=0;orthogonalLoop=1;jettySize=auto;html=1;exitX=1;exitY=0.5;exitDx=0;exitDy=0;entryX=0;entryY=0.5;entryDx=0;entryDy=0;startArrow=classic;startFill=1;" parent="1" source="A0feqh_LO4c4gAYyQwBR-11" target="A0feqh_LO4c4gAYyQwBR-12" edge="1">
                    <mxGeometry relative="1" as="geometry"/>
                </mxCell>
                <mxCell id="A0feqh_LO4c4gAYyQwBR-11" value="handler" style="rounded=0;whiteSpace=wrap;html=1;fillColor=none;" parent="1" vertex="1">
                    <mxGeometry x="506" y="352.5" width="60" height="103" as="geometry"/>
                </mxCell>
                <mxCell id="A0feqh_LO4c4gAYyQwBR-18" style="edgeStyle=orthogonalEdgeStyle;rounded=0;orthogonalLoop=1;jettySize=auto;html=1;exitX=1;exitY=0.5;exitDx=0;exitDy=0;entryX=0;entryY=0.5;entryDx=0;entryDy=0;startArrow=classic;startFill=1;" parent="1" source="A0feqh_LO4c4gAYyQwBR-12" target="A0feqh_LO4c4gAYyQwBR-13" edge="1">
                    <mxGeometry relative="1" as="geometry"/>
                </mxCell>
                <mxCell id="A0feqh_LO4c4gAYyQwBR-12" value="controller" style="rounded=0;whiteSpace=wrap;html=1;fillColor=none;" parent="1" vertex="1">
                    <mxGeometry x="606" y="352.5" width="60" height="103" as="geometry"/>
                </mxCell>
                <mxCell id="A0feqh_LO4c4gAYyQwBR-13" value="service" style="rounded=0;whiteSpace=wrap;html=1;fillColor=none;" parent="1" vertex="1">
                    <mxGeometry x="706" y="353" width="59" height="102" as="geometry"/>
                </mxCell>
                <mxCell id="b237HD22X1SUacGwKrPa-2" value="" style="outlineConnect=0;fontColor=#232F3E;gradientColor=#F78E04;gradientDirection=north;fillColor=#D05C17;strokeColor=#ffffff;dashed=0;verticalLabelPosition=bottom;verticalAlign=top;align=center;html=1;fontSize=12;fontStyle=0;aspect=fixed;shape=mxgraph.aws4.resourceIcon;resIcon=mxgraph.aws4.lambda;" parent="1" vertex="1">
                    <mxGeometry x="462" y="290" width="48" height="48" as="geometry"/>
                </mxCell>
                <mxCell id="b237HD22X1SUacGwKrPa-3" value="" style="outlineConnect=0;fontColor=#232F3E;gradientColor=#F34482;gradientDirection=north;fillColor=#BC1356;strokeColor=#ffffff;dashed=0;verticalLabelPosition=bottom;verticalAlign=top;align=center;html=1;fontSize=12;fontStyle=0;aspect=fixed;shape=mxgraph.aws4.resourceIcon;resIcon=mxgraph.aws4.cloudwatch;" parent="1" vertex="1">
                    <mxGeometry x="601" y="542" width="70" height="70" as="geometry"/>
                </mxCell>
                <mxCell id="b237HD22X1SUacGwKrPa-6" style="edgeStyle=orthogonalEdgeStyle;rounded=0;orthogonalLoop=1;jettySize=auto;html=1;entryX=0;entryY=0.5;entryDx=0;entryDy=0;" parent="1" source="b237HD22X1SUacGwKrPa-5" target="A0feqh_LO4c4gAYyQwBR-9" edge="1">
                    <mxGeometry relative="1" as="geometry"/>
                </mxCell>
                <mxCell id="b237HD22X1SUacGwKrPa-5" value="" style="outlineConnect=0;fontColor=#232F3E;gradientColor=#945DF2;gradientDirection=north;fillColor=#5A30B5;strokeColor=#ffffff;dashed=0;verticalLabelPosition=bottom;verticalAlign=top;align=center;html=1;fontSize=12;fontStyle=0;aspect=fixed;shape=mxgraph.aws4.resourceIcon;resIcon=mxgraph.aws4.api_gateway;" parent="1" vertex="1">
                    <mxGeometry x="340" y="365.5" width="63" height="63" as="geometry"/>
                </mxCell>
                <mxCell id="b237HD22X1SUacGwKrPa-7" value="&lt;b&gt;&lt;font style=&quot;font-size: 16px&quot;&gt;Key&lt;/font&gt;&lt;/b&gt;" style="text;html=1;resizable=0;points=[];autosize=1;align=left;verticalAlign=top;spacingTop=-4;" parent="1" vertex="1">
                    <mxGeometry x="267" y="668" width="40" height="20" as="geometry"/>
                </mxCell>
                <mxCell id="b237HD22X1SUacGwKrPa-8" value="" style="outlineConnect=0;fontColor=#232F3E;gradientColor=#945DF2;gradientDirection=north;fillColor=#5A30B5;strokeColor=#ffffff;dashed=0;verticalLabelPosition=bottom;verticalAlign=top;align=center;html=1;fontSize=12;fontStyle=0;aspect=fixed;shape=mxgraph.aws4.resourceIcon;resIcon=mxgraph.aws4.api_gateway;" parent="1" vertex="1">
                    <mxGeometry x="287" y="700" width="40" height="40" as="geometry"/>
                </mxCell>
                <mxCell id="b237HD22X1SUacGwKrPa-9" value="API Gateway" style="text;html=1;resizable=0;points=[];autosize=1;align=left;verticalAlign=top;spacingTop=-4;" parent="1" vertex="1">
                    <mxGeometry x="337" y="710" width="90" height="20" as="geometry"/>
                </mxCell>
                <mxCell id="b237HD22X1SUacGwKrPa-10" value="" style="outlineConnect=0;fontColor=#232F3E;gradientColor=#F78E04;gradientDirection=north;fillColor=#D05C17;strokeColor=#ffffff;dashed=0;verticalLabelPosition=bottom;verticalAlign=top;align=center;html=1;fontSize=12;fontStyle=0;aspect=fixed;shape=mxgraph.aws4.resourceIcon;resIcon=mxgraph.aws4.lambda;" parent="1" vertex="1">
                    <mxGeometry x="417" y="700" width="40" height="40" as="geometry"/>
                </mxCell>
                <mxCell id="b237HD22X1SUacGwKrPa-11" value="Lambda" style="text;html=1;resizable=0;points=[];autosize=1;align=left;verticalAlign=top;spacingTop=-4;" parent="1" vertex="1">
                    <mxGeometry x="465" y="710" width="60" height="20" as="geometry"/>
                </mxCell>
                <mxCell id="b237HD22X1SUacGwKrPa-12" value="" style="outlineConnect=0;fontColor=#232F3E;gradientColor=#F34482;gradientDirection=north;fillColor=#BC1356;strokeColor=#ffffff;dashed=0;verticalLabelPosition=bottom;verticalAlign=top;align=center;html=1;fontSize=12;fontStyle=0;aspect=fixed;shape=mxgraph.aws4.resourceIcon;resIcon=mxgraph.aws4.cloudwatch;" parent="1" vertex="1">
                    <mxGeometry x="522" y="700" width="40" height="40" as="geometry"/>
                </mxCell>
                <mxCell id="b237HD22X1SUacGwKrPa-13" value="Cloudwatch" style="text;html=1;resizable=0;points=[];autosize=1;align=left;verticalAlign=top;spacingTop=-4;" parent="1" vertex="1">
                    <mxGeometry x="573" y="710" width="80" height="20" as="geometry"/>
                </mxCell>
                <mxCell id="b237HD22X1SUacGwKrPa-14" value="" style="outlineConnect=0;fontColor=#232F3E;gradientColor=#F54749;gradientDirection=north;fillColor=#C7131F;strokeColor=#ffffff;dashed=0;verticalLabelPosition=bottom;verticalAlign=top;align=center;html=1;fontSize=12;fontStyle=0;aspect=fixed;shape=mxgraph.aws4.resourceIcon;resIcon=mxgraph.aws4.identity_and_access_management;" parent="1" vertex="1">
                    <mxGeometry x="760.5" y="287" width="51" height="51" as="geometry"/>
                </mxCell>
                <mxCell id="b237HD22X1SUacGwKrPa-15" value="" style="outlineConnect=0;fontColor=#232F3E;gradientColor=#F54749;gradientDirection=north;fillColor=#C7131F;strokeColor=#ffffff;dashed=0;verticalLabelPosition=bottom;verticalAlign=top;align=center;html=1;fontSize=12;fontStyle=0;aspect=fixed;shape=mxgraph.aws4.resourceIcon;resIcon=mxgraph.aws4.identity_and_access_management;" parent="1" vertex="1">
                    <mxGeometry x="646" y="700" width="40" height="40" as="geometry"/>
                </mxCell>
                <mxCell id="b237HD22X1SUacGwKrPa-16" value="IAM" style="text;html=1;resizable=0;points=[];autosize=1;align=left;verticalAlign=top;spacingTop=-4;" parent="1" vertex="1">
                    <mxGeometry x="691" y="710" width="40" height="20" as="geometry"/>
                </mxCell>
                <mxCell id="b237HD22X1SUacGwKrPa-17" value="Send lambda logs &lt;br&gt;to cloudwatch" style="text;html=1;resizable=0;points=[];autosize=1;align=left;verticalAlign=top;spacingTop=-4;" parent="1" vertex="1">
                    <mxGeometry x="645.5" y="496" width="110" height="30" as="geometry"/>
                </mxCell>
                <mxCell id="b237HD22X1SUacGwKrPa-18" value="lambda &lt;br&gt;role" style="text;html=1;resizable=0;points=[];autosize=1;align=left;verticalAlign=top;spacingTop=-4;" parent="1" vertex="1">
                    <mxGeometry x="820" y="295" width="50" height="30" as="geometry"/>
                </mxCell>
                <mxCell id="2" value="" style="points=[[0,0,0],[0.25,0,0],[0.5,0,0],[0.75,0,0],[1,0,0],[0,1,0],[0.25,1,0],[0.5,1,0],[0.75,1,0],[1,1,0],[0,0.25,0],[0,0.5,0],[0,0.75,0],[1,0.25,0],[1,0.5,0],[1,0.75,0]];outlineConnect=0;fontColor=#232F3E;gradientColor=#4D72F3;gradientDirection=north;fillColor=#3334B9;strokeColor=#ffffff;dashed=0;verticalLabelPosition=bottom;verticalAlign=top;align=center;html=1;fontSize=12;fontStyle=0;aspect=fixed;shape=mxgraph.aws4.resourceIcon;resIcon=mxgraph.aws4.xray;" parent="1" vertex="1">
                    <mxGeometry x="417" y="542" width="70" height="70" as="geometry"/>
                </mxCell>
                <mxCell id="3" style="edgeStyle=orthogonalEdgeStyle;rounded=0;orthogonalLoop=1;jettySize=auto;html=1;dashed=1;entryX=0;entryY=0.5;entryDx=0;entryDy=0;entryPerimeter=0;" parent="1" source="b237HD22X1SUacGwKrPa-5" target="2" edge="1">
                    <mxGeometry relative="1" as="geometry">
                        <mxPoint x="646" y="494" as="sourcePoint"/>
                        <mxPoint x="646" y="552" as="targetPoint"/>
                        <Array as="points">
                            <mxPoint x="372" y="578"/>
                        </Array>
                    </mxGeometry>
                </mxCell>
                <mxCell id="4" style="edgeStyle=orthogonalEdgeStyle;rounded=0;orthogonalLoop=1;jettySize=auto;html=1;exitX=0.25;exitY=1;exitDx=0;exitDy=0;dashed=1;entryX=1;entryY=0.5;entryDx=0;entryDy=0;entryPerimeter=0;" parent="1" source="A0feqh_LO4c4gAYyQwBR-9" target="2" edge="1">
                    <mxGeometry relative="1" as="geometry">
                        <mxPoint x="646" y="494" as="sourcePoint"/>
                        <mxPoint x="646" y="552" as="targetPoint"/>
                    </mxGeometry>
                </mxCell>
                <mxCell id="5" value="" style="points=[[0,0,0],[0.25,0,0],[0.5,0,0],[0.75,0,0],[1,0,0],[0,1,0],[0.25,1,0],[0.5,1,0],[0.75,1,0],[1,1,0],[0,0.25,0],[0,0.5,0],[0,0.75,0],[1,0.25,0],[1,0.5,0],[1,0.75,0]];outlineConnect=0;fontColor=#232F3E;gradientColor=#4D72F3;gradientDirection=north;fillColor=#3334B9;strokeColor=#ffffff;dashed=0;verticalLabelPosition=bottom;verticalAlign=top;align=center;html=1;fontSize=12;fontStyle=0;aspect=fixed;shape=mxgraph.aws4.resourceIcon;resIcon=mxgraph.aws4.xray;" parent="1" vertex="1">
                    <mxGeometry x="730" y="700" width="40" height="40" as="geometry"/>
                </mxCell>
                <mxCell id="6" value="X-Ray" style="text;html=1;resizable=0;points=[];autosize=1;align=left;verticalAlign=top;spacingTop=-4;" parent="1" vertex="1">
                    <mxGeometry x="780" y="710" width="50" height="20" as="geometry"/>
                </mxCell>
                <mxCell id="7" value="Send traces &lt;br&gt;to X-Ray" style="text;html=1;resizable=0;points=[];autosize=1;align=left;verticalAlign=top;spacingTop=-4;" parent="1" vertex="1">
                    <mxGeometry x="377" y="496" width="80" height="30" as="geometry"/>
                </mxCell>
                <mxCell id="8" value="Send traces &lt;br&gt;to X-Ray" style="text;html=1;resizable=0;points=[];autosize=1;align=left;verticalAlign=top;spacingTop=-4;" parent="1" vertex="1">
                    <mxGeometry x="489" y="498" width="80" height="30" as="geometry"/>
                </mxCell>
            </root>
        </mxGraphModel>
    </diagram>
</mxfile>